<?xml version="1.0" encoding="utf-8"?>
<!-- Generator: Adobe Illustrator 22.0.0, SVG Export Plug-In . SVG Version: 6.00 Build 0)  -->
<svg version="1.1" id="Слой_1" xmlns="http://www.w3.org/2000/svg" xmlns:xlink="http://www.w3.org/1999/xlink" x="0px" y="0px"
	 viewBox="0 0 440.2 131.5" style="enable-background:new 0 0 440.2 131.5;" xml:space="preserve">
<style type="text/css">
	.st0{fill:#020203;}
</style>
<g>
	<g>
		<path class="st0" d="M10.5,69.4c0-0.8,0-2-0.1-3.3c0-1.4-0.1-2.8-0.2-4.2c-0.1-1.5-0.2-2.9-0.4-4.3c-0.1-1.4-0.3-2.6-0.5-3.7h-9.5
			v-9.2h19l1.3,11.5h0.7c0.9-1.6,2.2-3.2,3.7-4.7c1.6-1.6,3.4-3,5.4-4.2s4.4-2.3,6.9-3c2.5-0.8,5.2-1.1,8.1-1.1
			c4.3,0,8.2,0.5,11.5,1.4c3.3,0.9,6.1,2.6,8.4,5c2.2,2.4,3.9,5.7,5,9.8c1.1,4.1,1.7,9.3,1.7,15.6v40.6H60.5V77
			c0-7.8-1.3-13.7-3.8-17.7s-7.1-5.9-13.8-5.9c-2.4,0-4.8,0.5-7.1,1.5c-2.3,1-4.4,2.3-6.3,3.9c-1.9,1.6-3.5,3.5-4.9,5.6
			c-1.4,2.1-2.4,4.4-3.1,6.7v44.3H10.5V69.4z"/>
		<path class="st0" d="M124.5,115.4V68.3c0-2-0.1-3.9-0.2-5.7c-0.1-1.8-0.5-3.5-1-5c-0.5-1.5-1.3-2.6-2.3-3.5
			c-1-0.8-2.3-1.3-3.9-1.3c-3.2,0-5.9,1.3-8.1,4c-2.2,2.6-3.9,5.9-5,9.9v48.7H93.2V44.6h7.4l2.1,8.6h0.6c0.9-1.4,1.9-2.8,2.8-4
			c0.9-1.3,1.9-2.4,3.1-3.3c1.2-0.9,2.6-1.7,4.2-2.2c1.6-0.5,3.6-0.8,6.1-0.8c1.4,0,2.9,0.2,4.4,0.6c1.5,0.4,2.9,1.1,4.2,2
			c1.3,0.9,2.4,2.1,3.3,3.6c0.9,1.5,1.6,3.4,1.8,5.5c2.2-3.7,4.6-6.6,7.3-8.6c2.7-2.1,6.4-3.1,11.1-3.1c3.1,0,5.6,0.5,7.6,1.6
			c1.9,1,3.4,2.5,4.5,4.5c1.1,1.9,1.8,4.2,2.3,6.9c0.4,2.7,0.6,5.7,0.6,9v50.5h-10.8V67.3c0-2-0.1-3.8-0.3-5.6
			c-0.2-1.7-0.5-3.3-1.1-4.6c-0.5-1.3-1.2-2.4-2.1-3.1c-0.9-0.8-2.1-1.1-3.6-1.1c-3.3,0-6.1,1.3-8.4,4c-2.3,2.6-4,6.4-5.1,11.3v47.3
			H124.5z"/>
		<path class="st0" d="M177.7,16.3h22.6v36.4h0.7c2.5-3.1,5.6-5.5,9.5-7.2c3.9-1.7,8.1-2.5,12.6-2.5c20.8,0,31.1,12,31.1,36
			c0,12.2-3.4,21.5-10.1,28c-6.7,6.5-16.2,9.7-28.6,9.7c-5.9,0-11.1-0.6-15.9-1.7c-4.7-1.1-8.2-2.5-10.3-4V25.8h-11.7V16.3z
			 M221.7,52.4c-5.7,0-10.2,1.6-13.7,4.8c-3.5,3.2-6,7.7-7.6,13.6v32.6c2.2,1.1,4.8,2,7.8,2.7c3,0.7,6.2,1,9.5,1
			c3.8,0,7.2-0.5,10.3-1.6s5.7-2.8,7.9-5.1c2.2-2.3,3.8-5.3,5-8.9c1.2-3.6,1.8-7.8,1.8-12.7c0-3.6-0.4-7-1.1-10.2
			c-0.8-3.2-2-6-3.6-8.4c-1.7-2.4-3.8-4.3-6.4-5.7C228.7,53.1,225.5,52.4,221.7,52.4z"/>
		<path class="st0" d="M284.3,16.3h23.6v75.3c0,5.8,1,9.8,2.9,12.2c1.9,2.4,4.8,3.5,8.6,3.5c2.6,0,5.2-0.5,7.6-1.4
			c2.4-0.9,5.1-2.5,8-4.8l5.1,7.8c-1.5,1.3-3.2,2.5-5,3.5c-1.8,1-3.6,1.9-5.5,2.6c-1.9,0.7-3.8,1.3-5.7,1.6
			c-1.9,0.4-3.6,0.6-5.3,0.6c-3.5,0-6.6-0.4-9.4-1.3c-2.7-0.9-5-2.3-6.9-4.3c-1.8-2-3.2-4.6-4.2-7.9s-1.4-7.3-1.4-12.1V25.8h-12.5
			V16.3z"/>
	</g>
	<rect x="379.7" y="-0.1" class="st0" width="60.4" height="131.9"/>
</g>
</svg>
